<svg width="20" height="20" viewBox="0 0 20 20" fill="none" xmlns="http://www.w3.org/2000/svg">
<rect x="3.65796" y="10.0378" width="12.5622" height="7.71527" rx="2" stroke="#262626" stroke-width="1.5"/>
<path d="M12.2632 9.94818V7.04709C12.2632 7.04709 12.1447 6.66781 12.0357 6.43989C11.923 6.20408 11.8614 6.06455 11.6944 5.86642C11.5462 5.69056 11.4452 5.59655 11.2556 5.47848C11.066 5.36041 10.8809 5.20722 10.6055 5.12428C10.3483 5.04682 10.1233 5.0793 9.92289 5.05681C9.72244 5.03432 9.60273 5.07874 9.40281 5.12428C9.12632 5.18725 8.96258 5.22553 8.72021 5.37728C8.48551 5.52422 8.38139 5.65304 8.20013 5.86642C8.02545 6.07205 7.92767 6.19442 7.81007 6.43989C7.70284 6.6637 7.61504 7.04709 7.61504 7.04709V9.94818H5.01465V7.04709C5.01465 7.04709 5.08573 6.30771 5.24218 5.86642C5.31183 5.66996 5.36864 5.5672 5.45346 5.37728C5.50958 5.25164 5.5382 5.17969 5.59974 5.05681C5.68106 4.89442 5.72811 4.80335 5.82727 4.65201C5.97167 4.43163 6.07559 4.32491 6.24983 4.12914C6.48744 3.86218 6.62779 3.71691 6.89993 3.4882C7.14077 3.2858 7.28195 3.17728 7.55003 3.01593C7.80544 2.8622 7.95574 2.78496 8.23263 2.6786C8.44358 2.59756 8.56642 2.56413 8.78521 2.50993C9.09172 2.43399 9.26688 2.39172 9.58158 2.37499C9.72737 2.36724 9.80943 2.37223 9.95539 2.37499C10.2095 2.3798 10.3532 2.37644 10.6055 2.40873C11.0409 2.46446 11.2839 2.53478 11.6944 2.69546C11.9628 2.80051 12.3608 3.01593 12.3608 3.01593C12.3608 3.01593 12.795 3.2782 13.0434 3.4882C13.3078 3.71177 13.4413 3.85835 13.6609 4.12914C13.8187 4.32364 13.9017 4.43853 14.0348 4.65201C14.1305 4.80567 14.181 4.89442 14.2623 5.05681C14.3238 5.17969 14.3539 5.25096 14.4086 5.37728C14.4902 5.56585 14.5369 5.67162 14.6036 5.86642C14.7562 6.31209 14.8636 7.04709 14.8636 7.04709V9.94818" stroke="#262626" stroke-width="1.5"/>
</svg>
