<svg width="30" height="27" viewBox="0 0 30 27" fill="none" xmlns="http://www.w3.org/2000/svg">
<path d="M16.1667 9.04688V4H8.875C8.3901 4 8 4.39707 8 4.89062V22.1094C8 22.6029 8.3901 23 8.875 23H21.125C21.6099 23 22 22.6029 22 22.1094V9.9375H17.0417C16.5604 9.9375 16.1667 9.53672 16.1667 9.04688ZM18.5 17.8047C18.5 18.0496 18.3031 18.25 18.0625 18.25H11.9375C11.6969 18.25 11.5 18.0496 11.5 17.8047V17.5078C11.5 17.2629 11.6969 17.0625 11.9375 17.0625H18.0625C18.3031 17.0625 18.5 17.2629 18.5 17.5078V17.8047ZM18.5 15.4297C18.5 15.6746 18.3031 15.875 18.0625 15.875H11.9375C11.6969 15.875 11.5 15.6746 11.5 15.4297V15.1328C11.5 14.8879 11.6969 14.6875 11.9375 14.6875H18.0625C18.3031 14.6875 18.5 14.8879 18.5 15.1328V15.4297ZM18.5 12.7578V13.0547C18.5 13.2996 18.3031 13.5 18.0625 13.5H11.9375C11.6969 13.5 11.5 13.2996 11.5 13.0547V12.7578C11.5 12.5129 11.6969 12.3125 11.9375 12.3125H18.0625C18.3031 12.3125 18.5 12.5129 18.5 12.7578ZM22 8.52363V8.75H17.3333V4H17.5557C17.7891 4 18.0115 4.09277 18.1755 4.25977L21.7448 7.89648C21.9089 8.06348 22 8.28984 22 8.52363Z" fill="#8D8D8D"/>
</svg>
