<svg width="30" height="27" viewBox="0 0 30 27" fill="none" xmlns="http://www.w3.org/2000/svg">
<path d="M23 17.3594V4.89062C23 4.39707 22.594 4 22.0893 4H9.64286C7.6317 4 6 5.5957 6 7.5625V19.4375C6 21.4043 7.6317 23 9.64286 23H22.0893C22.594 23 23 22.6029 23 22.1094V21.5156C23 21.2373 22.8672 20.985 22.6623 20.8217C22.5029 20.2502 22.5029 18.6211 22.6623 18.0496C22.8672 17.89 23 17.6377 23 17.3594ZM10.8571 8.97266C10.8571 8.8502 10.9596 8.75 11.0848 8.75H19.1295C19.2547 8.75 19.3571 8.8502 19.3571 8.97266V9.71484C19.3571 9.8373 19.2547 9.9375 19.1295 9.9375H11.0848C10.9596 9.9375 10.8571 9.8373 10.8571 9.71484V8.97266ZM10.8571 11.3477C10.8571 11.2252 10.9596 11.125 11.0848 11.125H19.1295C19.2547 11.125 19.3571 11.2252 19.3571 11.3477V12.0898C19.3571 12.2123 19.2547 12.3125 19.1295 12.3125H11.0848C10.9596 12.3125 10.8571 12.2123 10.8571 12.0898V11.3477ZM20.4728 20.625H9.64286C8.97121 20.625 8.42857 20.0943 8.42857 19.4375C8.42857 18.7844 8.975 18.25 9.64286 18.25H20.4728C20.4007 18.8846 20.4007 19.9904 20.4728 20.625Z" fill="#8D8D8D"/>
</svg>
