<svg width="30" height="27" viewBox="0 0 30 27" fill="none" xmlns="http://www.w3.org/2000/svg">
<path d="M24.125 6.375H7.20833C6.72508 6.375 6.33333 6.77374 6.33333 7.26562V7.5625H4.875C4.39174 7.5625 4 7.96124 4 8.45312V18.5469C4 19.6946 4.91408 20.625 6.04167 20.625H23.25C24.2165 20.625 25 19.8275 25 18.8438V7.26562C25 6.77374 24.6083 6.375 24.125 6.375ZM6.04167 18.8438C5.96431 18.8438 5.89013 18.8125 5.83543 18.7568C5.78073 18.7011 5.75 18.6256 5.75 18.5469V9.34375H6.33333V18.5469C6.33333 18.6256 6.3026 18.7011 6.24791 18.7568C6.19321 18.8125 6.11902 18.8438 6.04167 18.8438ZM14.6458 18.25H9.10417C8.86256 18.25 8.66667 18.0506 8.66667 17.8047V17.5078C8.66667 17.2619 8.86256 17.0625 9.10417 17.0625H14.6458C14.8874 17.0625 15.0833 17.2619 15.0833 17.5078V17.8047C15.0833 18.0506 14.8874 18.25 14.6458 18.25ZM22.2292 18.25H16.6875C16.4459 18.25 16.25 18.0506 16.25 17.8047V17.5078C16.25 17.2619 16.4459 17.0625 16.6875 17.0625H22.2292C22.4708 17.0625 22.6667 17.2619 22.6667 17.5078V17.8047C22.6667 18.0506 22.4708 18.25 22.2292 18.25ZM14.6458 14.6875H9.10417C8.86256 14.6875 8.66667 14.4881 8.66667 14.2422V13.9453C8.66667 13.6994 8.86256 13.5 9.10417 13.5H14.6458C14.8874 13.5 15.0833 13.6994 15.0833 13.9453V14.2422C15.0833 14.4881 14.8874 14.6875 14.6458 14.6875ZM22.2292 14.6875H16.6875C16.4459 14.6875 16.25 14.4881 16.25 14.2422V13.9453C16.25 13.6994 16.4459 13.5 16.6875 13.5H22.2292C22.4708 13.5 22.6667 13.6994 22.6667 13.9453V14.2422C22.6667 14.4881 22.4708 14.6875 22.2292 14.6875ZM22.2292 11.125H9.10417C8.86256 11.125 8.66667 10.9256 8.66667 10.6797V9.19531C8.66667 8.94939 8.86256 8.75 9.10417 8.75H22.2292C22.4708 8.75 22.6667 8.94939 22.6667 9.19531V10.6797C22.6667 10.9256 22.4708 11.125 22.2292 11.125Z" fill="#8D8D8D"/>
</svg>
