<svg width="30" height="27" viewBox="0 0 30 27" fill="none" xmlns="http://www.w3.org/2000/svg">
<path d="M6.78125 5.1875C5.79785 5.1875 5 5.98535 5 6.96875V20.0312C5 21.0146 5.79785 21.8125 6.78125 21.8125H22.2188C23.2021 21.8125 24 21.0146 24 20.0312V6.96875C24 5.98535 23.2021 5.1875 22.2188 5.1875H6.78125ZM6.78125 6.375H10.7148C10.8373 6.375 10.9375 6.4752 10.9375 6.59766V7.33984C10.9375 7.4623 10.8373 7.5625 10.7148 7.5625H6.41016C6.2877 7.5625 6.1875 7.4623 6.1875 7.33984V6.96875C6.1875 6.64219 6.45469 6.375 6.78125 6.375ZM22.5898 9.9375H6.41016C6.2877 9.9375 6.1875 9.8373 6.1875 9.71484V8.37891C6.1875 8.25645 6.2877 8.15625 6.41016 8.15625H11.5312L12.652 6.4752C12.6928 6.41211 12.7633 6.375 12.8375 6.375H22.2188C22.5453 6.375 22.8125 6.64219 22.8125 6.96875V9.71484C22.8125 9.8373 22.7123 9.9375 22.5898 9.9375ZM14.5 19.7344C12.0434 19.7344 10.0469 17.7379 10.0469 15.2812C10.0469 12.8246 12.0434 10.8281 14.5 10.8281C16.9566 10.8281 18.9531 12.8246 18.9531 15.2812C18.9531 17.7379 16.9566 19.7344 14.5 19.7344ZM14.5 12.0156C12.7002 12.0156 11.2344 13.4814 11.2344 15.2812C11.2344 17.0811 12.7002 18.5469 14.5 18.5469C16.2998 18.5469 17.7656 17.0811 17.7656 15.2812C17.7656 13.4814 16.2998 12.0156 14.5 12.0156ZM12.7188 15.875C12.3922 15.875 12.125 15.6078 12.125 15.2812C12.125 13.9713 13.19 12.9062 14.5 12.9062C14.8266 12.9062 15.0938 13.1734 15.0938 13.5C15.0938 13.8266 14.8266 14.0938 14.5 14.0938C13.8469 14.0938 13.3125 14.6281 13.3125 15.2812C13.3125 15.6078 13.0453 15.875 12.7188 15.875Z" fill="#8D8D8D"/>
</svg>
