<svg width="38" height="38" viewBox="0 0 38 38" fill="none" xmlns="http://www.w3.org/2000/svg">
<rect width="38" height="38" rx="19" fill="#C8D9DC"/>
<path d="M27 23.3594V10.8906C27 10.3971 26.594 10 26.0893 10H13.6429C11.6317 10 10 11.5957 10 13.5625V25.4375C10 27.4043 11.6317 29 13.6429 29H26.0893C26.594 29 27 28.6029 27 28.1094V27.5156C27 27.2373 26.8672 26.985 26.6623 26.8217C26.5029 26.2502 26.5029 24.6211 26.6623 24.0496C26.8672 23.89 27 23.6377 27 23.3594ZM14.8571 14.9727C14.8571 14.8502 14.9596 14.75 15.0848 14.75H23.1295C23.2547 14.75 23.3571 14.8502 23.3571 14.9727V15.7148C23.3571 15.8373 23.2547 15.9375 23.1295 15.9375H15.0848C14.9596 15.9375 14.8571 15.8373 14.8571 15.7148V14.9727ZM14.8571 17.3477C14.8571 17.2252 14.9596 17.125 15.0848 17.125H23.1295C23.2547 17.125 23.3571 17.2252 23.3571 17.3477V18.0898C23.3571 18.2123 23.2547 18.3125 23.1295 18.3125H15.0848C14.9596 18.3125 14.8571 18.2123 14.8571 18.0898V17.3477ZM24.4728 26.625H13.6429C12.9712 26.625 12.4286 26.0943 12.4286 25.4375C12.4286 24.7844 12.975 24.25 13.6429 24.25H24.4728C24.4007 24.8846 24.4007 25.9904 24.4728 26.625Z" fill="white"/>
</svg>
