<svg width="38" height="38" viewBox="0 0 38 38" fill="none" xmlns="http://www.w3.org/2000/svg">
<rect width="38" height="38" rx="19" fill="#9A86B5"/>
<g clip-path="url(#clip0)">
<path d="M27.5975 14.9395C24.4294 9.24609 15.1372 8 15.1372 8C15.1372 8 19.4249 12.7437 13.9455 16.4949C10.4805 18.8625 9.11064 21.9391 10.595 25.2992C11.7316 27.873 14.1363 28.9215 16.7276 29.3125C15.4892 26.9449 16.4477 24.0531 16.5537 23.7437C18.9754 27.4562 23.5515 23.7437 21.2528 19.709C24.264 20.3707 24.7135 25.6645 22.4022 28.9688C25.8162 27.8816 28.0894 25.1488 28.7129 22.7125C29.3702 20.1645 28.8698 17.2168 27.5975 14.9395Z" fill="white"/>
</g>
<defs>
<clipPath id="clip0">
<rect width="19" height="22" fill="white" transform="translate(10 8)"/>
</clipPath>
</defs>
</svg>
