<svg width="38" height="38" viewBox="0 0 38 38" fill="none" xmlns="http://www.w3.org/2000/svg">
<rect width="38" height="38" rx="19" fill="#A396BC"/>
<path d="M28.125 11.375H11.2083C10.7251 11.375 10.3333 11.7737 10.3333 12.2656V12.5625H8.875C8.39174 12.5625 8 12.9612 8 13.4531V23.5469C8 24.6946 8.91408 25.625 10.0417 25.625H27.25C28.2165 25.625 29 24.8275 29 23.8438V12.2656C29 11.7737 28.6083 11.375 28.125 11.375ZM10.0417 23.8438C9.96431 23.8438 9.89013 23.8125 9.83543 23.7568C9.78073 23.7011 9.75 23.6256 9.75 23.5469V14.3438H10.3333V23.5469C10.3333 23.6256 10.3026 23.7011 10.2479 23.7568C10.1932 23.8125 10.119 23.8438 10.0417 23.8438ZM18.6458 23.25H13.1042C12.8626 23.25 12.6667 23.0506 12.6667 22.8047V22.5078C12.6667 22.2619 12.8626 22.0625 13.1042 22.0625H18.6458C18.8874 22.0625 19.0833 22.2619 19.0833 22.5078V22.8047C19.0833 23.0506 18.8874 23.25 18.6458 23.25ZM26.2292 23.25H20.6875C20.4459 23.25 20.25 23.0506 20.25 22.8047V22.5078C20.25 22.2619 20.4459 22.0625 20.6875 22.0625H26.2292C26.4708 22.0625 26.6667 22.2619 26.6667 22.5078V22.8047C26.6667 23.0506 26.4708 23.25 26.2292 23.25ZM18.6458 19.6875H13.1042C12.8626 19.6875 12.6667 19.4881 12.6667 19.2422V18.9453C12.6667 18.6994 12.8626 18.5 13.1042 18.5H18.6458C18.8874 18.5 19.0833 18.6994 19.0833 18.9453V19.2422C19.0833 19.4881 18.8874 19.6875 18.6458 19.6875ZM26.2292 19.6875H20.6875C20.4459 19.6875 20.25 19.4881 20.25 19.2422V18.9453C20.25 18.6994 20.4459 18.5 20.6875 18.5H26.2292C26.4708 18.5 26.6667 18.6994 26.6667 18.9453V19.2422C26.6667 19.4881 26.4708 19.6875 26.2292 19.6875ZM26.2292 16.125H13.1042C12.8626 16.125 12.6667 15.9256 12.6667 15.6797V14.1953C12.6667 13.9494 12.8626 13.75 13.1042 13.75H26.2292C26.4708 13.75 26.6667 13.9494 26.6667 14.1953V15.6797C26.6667 15.9256 26.4708 16.125 26.2292 16.125Z" fill="white"/>
</svg>
