<svg width="38" height="38" viewBox="0 0 38 38" fill="none" xmlns="http://www.w3.org/2000/svg">
<rect width="38" height="38" rx="19" fill="#B0AEC8"/>
<path d="M10.7812 10.1875C9.79785 10.1875 9 10.9854 9 11.9688V25.0312C9 26.0146 9.79785 26.8125 10.7812 26.8125H26.2188C27.2021 26.8125 28 26.0146 28 25.0312V11.9688C28 10.9854 27.2021 10.1875 26.2188 10.1875H10.7812ZM10.7812 11.375H14.7148C14.8373 11.375 14.9375 11.4752 14.9375 11.5977V12.3398C14.9375 12.4623 14.8373 12.5625 14.7148 12.5625H10.4102C10.2877 12.5625 10.1875 12.4623 10.1875 12.3398V11.9688C10.1875 11.6422 10.4547 11.375 10.7812 11.375ZM26.5898 14.9375H10.4102C10.2877 14.9375 10.1875 14.8373 10.1875 14.7148V13.3789C10.1875 13.2564 10.2877 13.1562 10.4102 13.1562H15.5312L16.652 11.4752C16.6928 11.4121 16.7633 11.375 16.8375 11.375H26.2188C26.5453 11.375 26.8125 11.6422 26.8125 11.9688V14.7148C26.8125 14.8373 26.7123 14.9375 26.5898 14.9375ZM18.5 24.7344C16.0434 24.7344 14.0469 22.7379 14.0469 20.2812C14.0469 17.8246 16.0434 15.8281 18.5 15.8281C20.9566 15.8281 22.9531 17.8246 22.9531 20.2812C22.9531 22.7379 20.9566 24.7344 18.5 24.7344ZM18.5 17.0156C16.7002 17.0156 15.2344 18.4814 15.2344 20.2812C15.2344 22.0811 16.7002 23.5469 18.5 23.5469C20.2998 23.5469 21.7656 22.0811 21.7656 20.2812C21.7656 18.4814 20.2998 17.0156 18.5 17.0156ZM16.7188 20.875C16.3922 20.875 16.125 20.6078 16.125 20.2812C16.125 18.9713 17.19 17.9062 18.5 17.9062C18.8266 17.9062 19.0938 18.1734 19.0938 18.5C19.0938 18.8266 18.8266 19.0938 18.5 19.0938C17.8469 19.0938 17.3125 19.6281 17.3125 20.2812C17.3125 20.6078 17.0453 20.875 16.7188 20.875Z" fill="white"/>
</svg>
