<svg width="38" height="38" viewBox="0 0 38 38" fill="none" xmlns="http://www.w3.org/2000/svg">
<rect width="38" height="38" rx="19" fill="#BEC7D3"/>
<path d="M20.1667 14.0469V9H12.875C12.3901 9 12 9.39707 12 9.89062V27.1094C12 27.6029 12.3901 28 12.875 28H25.125C25.6099 28 26 27.6029 26 27.1094V14.9375H21.0417C20.5604 14.9375 20.1667 14.5367 20.1667 14.0469ZM22.5 22.8047C22.5 23.0496 22.3031 23.25 22.0625 23.25H15.9375C15.6969 23.25 15.5 23.0496 15.5 22.8047V22.5078C15.5 22.2629 15.6969 22.0625 15.9375 22.0625H22.0625C22.3031 22.0625 22.5 22.2629 22.5 22.5078V22.8047ZM22.5 20.4297C22.5 20.6746 22.3031 20.875 22.0625 20.875H15.9375C15.6969 20.875 15.5 20.6746 15.5 20.4297V20.1328C15.5 19.8879 15.6969 19.6875 15.9375 19.6875H22.0625C22.3031 19.6875 22.5 19.8879 22.5 20.1328V20.4297ZM22.5 17.7578V18.0547C22.5 18.2996 22.3031 18.5 22.0625 18.5H15.9375C15.6969 18.5 15.5 18.2996 15.5 18.0547V17.7578C15.5 17.5129 15.6969 17.3125 15.9375 17.3125H22.0625C22.3031 17.3125 22.5 17.5129 22.5 17.7578ZM26 13.5236V13.75H21.3333V9H21.5557C21.7891 9 22.0115 9.09277 22.1755 9.25977L25.7448 12.8965C25.9089 13.0635 26 13.2898 26 13.5236Z" fill="white"/>
</svg>
