<svg width="149" height="35" viewBox="0 0 149 35" fill="none" xmlns="http://www.w3.org/2000/svg">
<path d="M30.235 33.784C29.839 33.892 29.209 34 28.345 34.108C27.517 34.216 26.689 34.27 25.861 34.27C25.033 34.27 24.295 34.198 23.647 34.054C23.035 33.946 22.513 33.73 22.081 33.406C21.649 33.082 21.325 32.632 21.109 32.056C20.893 31.48 20.785 30.724 20.785 29.788V21.364H10.417V33.784C10.021 33.892 9.39103 34 8.52703 34.108C7.69903 34.216 6.87103 34.27 6.04303 34.27C5.21503 34.27 4.47703 34.198 3.82903 34.054C3.21703 33.946 2.69503 33.73 2.26303 33.406C1.83103 33.082 1.50703 32.632 1.29103 32.056C1.07503 31.48 0.967032 30.724 0.967032 29.788V1.276C1.36303 1.204 1.99303 1.114 2.85703 1.006C3.72103 0.862 4.54903 0.789999 5.34103 0.789999C6.16903 0.789999 6.88903 0.862 7.50103 1.006C8.14903 1.114 8.68903 1.33 9.12103 1.654C9.55303 1.978 9.87703 2.428 10.093 3.004C10.309 3.58 10.417 4.336 10.417 5.272V13.912H20.785V1.276C21.181 1.204 21.811 1.114 22.675 1.006C23.539 0.862 24.367 0.789999 25.159 0.789999C25.987 0.789999 26.707 0.862 27.319 1.006C27.967 1.114 28.507 1.33 28.939 1.654C29.371 1.978 29.695 2.428 29.911 3.004C30.127 3.58 30.235 4.336 30.235 5.272V33.784ZM44.2143 2.248C44.8263 1.888 45.7443 1.546 46.9683 1.222C48.2283 0.897997 49.4883 0.735997 50.7483 0.735997C52.5483 0.735997 54.1323 1.006 55.5003 1.546C56.9043 2.05 57.8043 2.86 58.2003 3.976C58.8483 5.848 59.5503 8.026 60.3063 10.51C61.0623 12.994 61.8183 15.568 62.5743 18.232C63.3303 20.86 64.0683 23.47 64.7883 26.062C65.5083 28.618 66.1383 30.886 66.6783 32.866C66.2463 33.37 65.5983 33.766 64.7343 34.054C63.8703 34.378 62.8443 34.54 61.6563 34.54C60.7923 34.54 60.0543 34.468 59.4423 34.324C58.8663 34.18 58.3803 33.964 57.9843 33.676C57.6243 33.388 57.3183 33.01 57.0663 32.542C56.8503 32.074 56.6523 31.534 56.4723 30.922L55.5003 27.196H45.7263C45.4383 28.276 45.1503 29.392 44.8623 30.544C44.5743 31.696 44.2863 32.812 43.9983 33.892C43.4943 34.072 42.9543 34.216 42.3783 34.324C41.8383 34.468 41.1723 34.54 40.3803 34.54C38.5443 34.54 37.1763 34.234 36.2763 33.622C35.4123 32.974 34.9803 32.092 34.9803 30.976C34.9803 30.472 35.0523 29.968 35.1963 29.464C35.3403 28.96 35.5023 28.366 35.6823 27.682C35.9343 26.71 36.2763 25.504 36.7083 24.064C37.1763 22.624 37.6803 21.076 38.2203 19.42C38.7603 17.728 39.3363 16 39.9483 14.236C40.5603 12.472 41.1363 10.816 41.6763 9.268C42.2163 7.684 42.7023 6.28 43.1343 5.056C43.6023 3.832 43.9623 2.896 44.2143 2.248ZM50.6943 9.214C50.1903 10.726 49.6143 12.418 48.9663 14.29C48.3543 16.126 47.7963 17.998 47.2923 19.906H53.9883C53.4843 17.962 52.9623 16.072 52.4223 14.236C51.9183 12.364 51.4503 10.69 51.0183 9.214H50.6943ZM80.6078 21.85V33.784C80.2118 33.892 79.5818 34 78.7178 34.108C77.8538 34.216 77.0078 34.27 76.1798 34.27C75.3518 34.27 74.6138 34.198 73.9658 34.054C73.3538 33.946 72.8318 33.73 72.3998 33.406C71.9678 33.082 71.6438 32.632 71.4278 32.056C71.2118 31.48 71.1038 30.724 71.1038 29.788V1.276C71.4998 1.204 72.1298 1.114 72.9938 1.006C73.8578 0.862 74.6858 0.789999 75.4778 0.789999C76.3058 0.789999 77.0258 0.862 77.6378 1.006C78.2858 1.114 78.8258 1.33 79.2578 1.654C79.6898 1.978 80.0138 2.428 80.2298 3.004C80.4458 3.58 80.5538 4.336 80.5538 5.272V13.858L91.7858 0.951997C94.2338 0.951997 95.9798 1.42 97.0238 2.356C98.1038 3.256 98.6438 4.336 98.6438 5.596C98.6438 6.532 98.4098 7.414 97.9418 8.242C97.4738 9.07 96.7178 10.006 95.6738 11.05L88.9238 17.8C89.8238 18.808 90.7598 19.852 91.7318 20.932C92.7398 22.012 93.7118 23.074 94.6478 24.118C95.6198 25.126 96.5378 26.098 97.4018 27.034C98.3018 27.97 99.0758 28.78 99.7238 29.464C99.7238 30.256 99.5798 30.958 99.2918 31.57C99.0038 32.182 98.6078 32.704 98.1037 33.136C97.6358 33.568 97.0958 33.892 96.4838 34.108C95.8718 34.324 95.2238 34.432 94.5398 34.432C93.0638 34.432 91.8578 34.072 90.9218 33.352C89.9858 32.596 89.0858 31.714 88.2218 30.706L80.6078 21.85ZM101.652 17.584C101.652 14.776 102.084 12.292 102.948 10.132C103.848 7.972 105.054 6.172 106.566 4.732C108.114 3.256 109.914 2.14 111.966 1.384C114.054 0.627999 116.304 0.25 118.716 0.25C121.128 0.25 123.36 0.627999 125.412 1.384C127.5 2.14 129.318 3.256 130.866 4.732C132.414 6.172 133.62 7.972 134.484 10.132C135.384 12.292 135.834 14.776 135.834 17.584C135.834 20.392 135.402 22.894 134.538 25.09C133.674 27.25 132.468 29.068 130.92 30.544C129.408 31.984 127.608 33.082 125.52 33.838C123.432 34.594 121.164 34.972 118.716 34.972C116.268 34.972 114 34.594 111.912 33.838C109.824 33.046 108.024 31.912 106.512 30.436C105 28.96 103.812 27.142 102.948 24.982C102.084 22.822 101.652 20.356 101.652 17.584ZM111.372 17.584C111.372 20.86 112.038 23.308 113.37 24.928C114.702 26.548 116.484 27.358 118.716 27.358C120.984 27.358 122.784 26.548 124.116 24.928C125.448 23.308 126.114 20.86 126.114 17.584C126.114 14.344 125.448 11.914 124.116 10.294C122.82 8.674 121.038 7.864 118.77 7.864C116.538 7.864 114.738 8.674 113.37 10.294C112.038 11.878 111.372 14.308 111.372 17.584ZM137.864 29.626C137.864 28.114 138.332 26.854 139.268 25.846C140.204 24.838 141.482 24.334 143.102 24.334C144.722 24.334 146 24.838 146.936 25.846C147.872 26.854 148.34 28.114 148.34 29.626C148.34 31.138 147.872 32.398 146.936 33.406C146 34.414 144.722 34.918 143.102 34.918C141.482 34.918 140.204 34.414 139.268 33.406C138.332 32.398 137.864 31.138 137.864 29.626Z" fill="url(#paint0_linear)"/>
<defs>
<linearGradient id="paint0_linear" x1="-15" y1="15.7143" x2="144.315" y2="17.8868" gradientUnits="userSpaceOnUse">
<stop stop-color="#CDE7DF"/>
<stop offset="1" stop-color="#9A86B5"/>
<stop offset="1" stop-color="#9A86B5"/>
</linearGradient>
</defs>
</svg>
