<svg width="20" height="20" viewBox="0 0 20 20" fill="none" xmlns="http://www.w3.org/2000/svg">
<path d="M14.7291 6.40133C14.7291 9.69948 11.0582 9.75024 11.0582 10.9691V11.2808C11.0582 11.6067 10.7859 11.871 10.4499 11.871H8.13615C7.80023 11.871 7.52788 11.6067 7.52788 11.2808V10.8549C7.52788 9.09663 8.90155 8.39379 9.93961 7.82901C10.8298 7.34476 11.3753 7.0154 11.3753 6.37408C11.3753 5.52579 10.2602 4.96273 9.35871 4.96273C8.18329 4.96273 7.64066 5.50267 6.8779 6.43685C6.67225 6.68869 6.297 6.73547 6.03312 6.54132L4.62275 5.50356C4.36388 5.3131 4.30589 4.95924 4.48873 4.69869C5.68635 2.99217 7.21178 2.03345 9.58676 2.03345C12.0741 2.03345 14.7291 3.91754 14.7291 6.40133ZM11.3753 15.8292C11.3753 16.9684 10.5326 17.9848 9.35871 17.9848C8.18481 17.9848 7.40015 16.9684 7.40015 15.8292C7.40015 14.6901 8.18481 13.897 9.35871 13.897C10.5326 13.897 11.3753 14.6901 11.3753 15.8292Z" stroke="#262626" stroke-width="2"/>
</svg>
