<svg width="20" height="20" viewBox="0 0 20 20" fill="none" xmlns="http://www.w3.org/2000/svg">
<g clip-path="url(#clip0)">
<path d="M6.82812 15.427H7.53125V10.6977H6.82812C6.43979 10.6977 6.125 10.4046 6.125 10.043V8.47905C6.125 8.11743 6.43979 7.82429 6.82812 7.82429H10.7656C11.154 7.82429 11.4687 8.11743 11.4687 8.47905V15.427H12.1719C12.5602 15.427 12.875 15.7202 12.875 16.0818V17.6457C12.875 18.0073 12.5602 18.3005 12.1719 18.3005H6.82812C6.43979 18.3005 6.125 18.0073 6.125 17.6457V16.0818C6.125 15.7202 6.43979 15.427 6.82812 15.427ZM9.5 1.53857C8.10201 1.53857 6.96875 2.59389 6.96875 3.89572C6.96875 5.19755 8.10201 6.25286 9.5 6.25286C10.898 6.25286 12.0312 5.19755 12.0312 3.89572C12.0312 2.59389 10.898 1.53857 9.5 1.53857Z" stroke="#262626" stroke-width="2"/>
</g>
<defs>
<clipPath id="clip0">
<rect width="20" height="20" fill="white"/>
</clipPath>
</defs>
</svg>
