<svg width="18" height="18" viewBox="0 0 18 18" fill="none" xmlns="http://www.w3.org/2000/svg">
<g clip-path="url(#clip0)">
<path d="M9.29485 6.12001C7.51511 6.12001 6.06508 7.57004 6.06508 9.34978C6.06508 11.1295 7.51511 12.5795 9.29485 12.5795C11.0746 12.5795 12.5246 11.1295 12.5246 9.34978C12.5246 7.57004 11.0746 6.12001 9.29485 6.12001ZM17.5846 8.8283L14.3986 7.23697L15.5256 3.85917C15.677 3.40162 15.243 2.96762 14.7888 3.12238L11.411 4.24943L9.81632 1.06004C9.601 0.629402 8.98869 0.629402 8.77337 1.06004L7.18204 4.24607L3.80087 3.11902C3.34332 2.96762 2.90932 3.40162 3.06408 3.85581L4.19114 7.23361L1.00511 8.8283C0.57447 9.04362 0.57447 9.65593 1.00511 9.87125L4.19114 11.4626L3.06408 14.8437C2.91269 15.3013 3.34669 15.7353 3.80087 15.5805L7.17867 14.4535L8.77001 17.6395C8.98533 18.0702 9.59764 18.0702 9.81295 17.6395L11.4043 14.4535L14.7821 15.5805C15.2396 15.7319 15.6736 15.2979 15.5189 14.8437L14.3918 11.4659L17.5779 9.87461C18.0152 9.65593 18.0152 9.04362 17.5846 8.8283ZM12.3396 12.3945C10.6608 14.0733 7.92892 14.0733 6.25012 12.3945C4.57131 10.7157 4.57131 7.98385 6.25012 6.30505C7.92892 4.62624 10.6608 4.62624 12.3396 6.30505C14.0184 7.98385 14.0184 10.7157 12.3396 12.3945Z" fill="black"/>
</g>
<defs>
<clipPath id="clip0">
<rect width="17.2254" height="17.2254" fill="white" transform="translate(0.682129 0.737061)"/>
</clipPath>
</defs>
</svg>
