<svg width="20" height="20" viewBox="0 0 20 20" fill="none" xmlns="http://www.w3.org/2000/svg">
<g clip-path="url(#clip0)">
<mask id="path-1-inside-1" fill="white">
<path d="M12.657 11.7271C11.7732 11.7271 11.3483 12.239 9.89788 12.239C8.44748 12.239 8.0256 11.7271 7.13873 11.7271C4.85381 11.7271 3 13.6533 3 16.0275V16.8466C3 17.6945 3.66207 18.3825 4.47812 18.3825H15.3176C16.1337 18.3825 16.7958 17.6945 16.7958 16.8466V16.0275C16.7958 13.6533 14.942 11.7271 12.657 11.7271ZM15.3176 16.8466H4.47812V16.0275C4.47812 14.5044 5.67293 13.2629 7.13873 13.2629C7.58832 13.2629 8.31814 13.7749 9.89788 13.7749C11.4899 13.7749 12.2044 13.2629 12.657 13.2629C14.1228 13.2629 15.3176 14.5044 15.3176 16.0275V16.8466ZM9.89788 11.2151C12.346 11.2151 14.3322 9.15133 14.3322 6.60757C14.3322 4.06381 12.346 2 9.89788 2C7.44975 2 5.46353 4.06381 5.46353 6.60757C5.46353 9.15133 7.44975 11.2151 9.89788 11.2151ZM9.89788 3.53586C11.5269 3.53586 12.8541 4.91493 12.8541 6.60757C12.8541 8.30021 11.5269 9.67928 9.89788 9.67928C8.26887 9.67928 6.94165 8.30021 6.94165 6.60757C6.94165 4.91493 8.26887 3.53586 9.89788 3.53586Z"/>
</mask>
<path d="M12.657 11.7271C11.7732 11.7271 11.3483 12.239 9.89788 12.239C8.44748 12.239 8.0256 11.7271 7.13873 11.7271C4.85381 11.7271 3 13.6533 3 16.0275V16.8466C3 17.6945 3.66207 18.3825 4.47812 18.3825H15.3176C16.1337 18.3825 16.7958 17.6945 16.7958 16.8466V16.0275C16.7958 13.6533 14.942 11.7271 12.657 11.7271ZM15.3176 16.8466H4.47812V16.0275C4.47812 14.5044 5.67293 13.2629 7.13873 13.2629C7.58832 13.2629 8.31814 13.7749 9.89788 13.7749C11.4899 13.7749 12.2044 13.2629 12.657 13.2629C14.1228 13.2629 15.3176 14.5044 15.3176 16.0275V16.8466ZM9.89788 11.2151C12.346 11.2151 14.3322 9.15133 14.3322 6.60757C14.3322 4.06381 12.346 2 9.89788 2C7.44975 2 5.46353 4.06381 5.46353 6.60757C5.46353 9.15133 7.44975 11.2151 9.89788 11.2151ZM9.89788 3.53586C11.5269 3.53586 12.8541 4.91493 12.8541 6.60757C12.8541 8.30021 11.5269 9.67928 9.89788 9.67928C8.26887 9.67928 6.94165 8.30021 6.94165 6.60757C6.94165 4.91493 8.26887 3.53586 9.89788 3.53586Z" fill="#262626"/>
<path d="M15.3176 16.8466V18.8466H17.3176V16.8466H15.3176ZM4.47812 16.8466H2.47812V18.8466H4.47812V16.8466ZM12.657 9.72709C11.8279 9.72709 11.152 9.99087 10.8777 10.0791C10.5972 10.1693 10.345 10.239 9.89788 10.239V14.239C10.9011 14.239 11.5866 14.0528 12.1022 13.887C12.6239 13.7193 12.6024 13.7271 12.657 13.7271V9.72709ZM9.89788 10.239C9.451 10.239 9.19975 10.1694 8.91977 10.0793C8.64424 9.99057 7.96935 9.72709 7.13873 9.72709V13.7271C7.19497 13.7271 7.17446 13.7196 7.69419 13.8869C8.20947 14.0527 8.89436 14.239 9.89788 14.239V10.239ZM7.13873 9.72709C3.6777 9.72709 1 12.6217 1 16.0275H5C5 14.685 6.02992 13.7271 7.13873 13.7271V9.72709ZM1 16.0275V16.8466H5V16.0275H1ZM1 16.8466C1 18.7262 2.48596 20.3825 4.47812 20.3825V16.3825C4.83818 16.3825 5 16.6629 5 16.8466H1ZM4.47812 20.3825H15.3176V16.3825H4.47812V20.3825ZM15.3176 20.3825C17.3098 20.3825 18.7958 18.7262 18.7958 16.8466H14.7958C14.7958 16.6629 14.9576 16.3825 15.3176 16.3825V20.3825ZM18.7958 16.8466V16.0275H14.7958V16.8466H18.7958ZM18.7958 16.0275C18.7958 12.6217 16.1181 9.72709 12.657 9.72709V13.7271C13.7658 13.7271 14.7958 14.685 14.7958 16.0275H18.7958ZM15.3176 14.8466H4.47812V18.8466H15.3176V14.8466ZM6.47812 16.8466V16.0275H2.47812V16.8466H6.47812ZM6.47812 16.0275C6.47812 15.5361 6.84904 15.2629 7.13873 15.2629V11.2629C4.49682 11.2629 2.47812 13.4728 2.47812 16.0275H6.47812ZM7.13873 15.2629C6.92306 15.2629 6.79929 15.2085 6.95038 15.2549C6.95958 15.2577 7.34849 15.3843 7.53131 15.438C8.1033 15.6058 8.87389 15.7749 9.89788 15.7749V11.7749C9.34214 11.7749 8.95794 11.688 8.65769 11.5999C8.40439 11.5255 8.42782 11.5242 8.12436 11.431C7.96279 11.3814 7.5792 11.2629 7.13873 11.2629V15.2629ZM9.89788 15.7749C10.927 15.7749 11.6972 15.6062 12.2702 15.4373C12.4521 15.3837 12.8421 15.256 12.8486 15.254C12.9963 15.2084 12.8724 15.2629 12.657 15.2629V11.2629C12.2153 11.2629 11.8324 11.3815 11.669 11.4319C11.3645 11.5259 11.3916 11.5261 11.1392 11.6005C10.8439 11.6876 10.4608 11.7749 9.89788 11.7749V15.7749ZM12.657 15.2629C12.9467 15.2629 13.3176 15.5361 13.3176 16.0275H17.3176C17.3176 13.4728 15.2989 11.2629 12.657 11.2629V15.2629ZM13.3176 16.0275V16.8466H17.3176V16.0275H13.3176ZM9.89788 13.2151C13.5221 13.2151 16.3322 10.183 16.3322 6.60757H12.3322C12.3322 8.11968 11.1699 9.21514 9.89788 9.21514V13.2151ZM16.3322 6.60757C16.3322 3.03216 13.5221 0 9.89788 0V4C11.1699 4 12.3322 5.09545 12.3322 6.60757H16.3322ZM9.89788 0C6.27364 0 3.46353 3.03216 3.46353 6.60757H7.46353C7.46353 5.09545 8.62586 4 9.89788 4V0ZM3.46353 6.60757C3.46353 10.183 6.27364 13.2151 9.89788 13.2151V9.21514C8.62586 9.21514 7.46353 8.11968 7.46353 6.60757H3.46353ZM9.89788 5.53586C10.3508 5.53586 10.8541 5.94657 10.8541 6.60757H14.8541C14.8541 3.88328 12.703 1.53586 9.89788 1.53586V5.53586ZM10.8541 6.60757C10.8541 7.26856 10.3508 7.67928 9.89788 7.67928V11.6793C12.703 11.6793 14.8541 9.33186 14.8541 6.60757H10.8541ZM9.89788 7.67928C9.44498 7.67928 8.94165 7.26856 8.94165 6.60757H4.94165C4.94165 9.33185 7.09276 11.6793 9.89788 11.6793V7.67928ZM8.94165 6.60757C8.94165 5.94657 9.44498 5.53586 9.89788 5.53586V1.53586C7.09276 1.53586 4.94165 3.88328 4.94165 6.60757H8.94165Z" fill="black" mask="url(#path-1-inside-1)"/>
</g>
<defs>
<clipPath id="clip0">
<rect width="13.7958" height="16.3825" fill="white" transform="translate(3 2)"/>
</clipPath>
</defs>
</svg>
