<svg width="60" height="53" viewBox="0 0 60 53" fill="none" xmlns="http://www.w3.org/2000/svg">
<path d="M50 43.0625V44.7188C50 47.4629 47.7615 49.6875 45 49.6875H5C2.23854 49.6875 0 47.4629 0 44.7188V18.2188C0 15.4746 2.23854 13.25 5 13.25H6.66667V34.7812C6.66667 39.3475 10.405 43.0625 15 43.0625H50ZM60 34.7812V8.28125C60 5.53705 57.7615 3.3125 55 3.3125H15C12.2385 3.3125 10 5.53705 10 8.28125V34.7812C10 37.5254 12.2385 39.75 15 39.75H55C57.7615 39.75 60 37.5254 60 34.7812ZM26.6667 13.25C26.6667 15.9942 24.4281 18.2188 21.6667 18.2188C18.9052 18.2188 16.6667 15.9942 16.6667 13.25C16.6667 10.5058 18.9052 8.28125 21.6667 8.28125C24.4281 8.28125 26.6667 10.5058 26.6667 13.25ZM16.6667 28.1562L22.4495 22.4096C22.9376 21.9245 23.7291 21.9245 24.2173 22.4096L28.3333 26.5L42.4495 12.4721C42.9376 11.987 43.7291 11.987 44.2173 12.4721L53.3333 21.5312V33.125H16.6667V28.1562Z" fill="#B4B4B4"/>
</svg>
