<svg width="115" height="112" viewBox="0 0 115 112" fill="none" xmlns="http://www.w3.org/2000/svg">
<path d="M111.5 56C111.5 84.9083 87.4112 108.5 57.5 108.5C27.5888 108.5 3.5 84.9083 3.5 56C3.5 27.0917 27.5888 3.5 57.5 3.5C87.4112 3.5 111.5 27.0917 111.5 56Z" stroke="white" stroke-width="7"/>
<path d="M50.6236 72.4777L35.6736 57.5277C34.7755 56.6295 34.7755 55.1732 35.6736 54.275L38.9262 51.0223C39.8244 50.124 41.2808 50.124 42.1789 51.0223L52.25 61.0932L73.821 39.5223C74.7192 38.6241 76.1755 38.6241 77.0737 39.5223L80.3263 42.775C81.2245 43.6731 81.2245 45.1294 80.3263 46.0277L53.8763 72.4778C52.9781 73.3759 51.5218 73.3759 50.6236 72.4777V72.4777Z" fill="white"/>
</svg>
