<svg width="16" height="21" viewBox="0 0 16 21" fill="none" xmlns="http://www.w3.org/2000/svg">
<path d="M9.33333 5.57812V0H1C0.445833 0 0 0.438867 0 0.984375V20.0156C0 20.5611 0.445833 21 1 21H15C15.5542 21 16 20.5611 16 20.0156V6.5625H10.3333C9.78333 6.5625 9.33333 6.11953 9.33333 5.57812ZM12.0492 14.4379H9.33333V17.7192C9.33333 18.0817 9.035 18.3754 8.66667 18.3754H7.33333C6.965 18.3754 6.66667 18.0817 6.66667 17.7192V14.4379H3.95083C3.35583 14.4379 3.05875 13.7287 3.48125 13.3157L7.49875 9.39053C7.77583 9.11941 8.22333 9.11941 8.50042 9.39053L12.5179 13.3157C12.9408 13.7287 12.6442 14.4379 12.0492 14.4379ZM15.7083 4.30664L11.6292 0.287109C11.4417 0.102539 11.1875 0 10.9208 0H10.6667V5.25H16V4.9998C16 4.74141 15.8958 4.49121 15.7083 4.30664Z" fill="#9A86B5"/>
</svg>
