<svg width="20" height="20" viewBox="0 0 20 20" fill="none" xmlns="http://www.w3.org/2000/svg">
<path d="M9.83228 13.4333L7.31386 11.3298C7.31386 11.3298 6.79079 11.3574 6.46961 11.4443C6.13599 11.5345 5.93967 11.5932 5.65399 11.7877C5.42525 11.9435 5.31532 12.0611 5.13885 12.2742C4.93411 12.5215 4.85791 12.6907 4.70958 12.9754C4.59056 13.2039 4.64578 13.4245 4.4377 13.5764C4.34879 13.6413 4.28982 13.6817 4.18013 13.6909C4.04453 13.7022 3.97746 13.6267 3.85102 13.5764C3.27354 13.3466 2.52026 12.7035 2.52026 12.7035C2.52026 12.7035 2.53517 13.7083 2.70628 14.3205C2.84515 14.8173 2.95192 15.0969 3.22142 15.5367C3.45806 15.923 3.60174 16.15 3.95119 16.4382C4.389 16.7993 4.71578 16.9213 5.26764 17.0535C5.90887 17.2072 6.3049 17.157 6.95613 17.0535C7.48527 16.9694 7.80702 16.9324 8.27258 16.6672C8.69557 16.4262 8.91334 16.2287 9.20268 15.8372C9.50147 15.433 9.60826 15.1511 9.73212 14.6639C9.85091 14.1966 9.83228 13.4333 9.83228 13.4333Z" stroke="#262626" stroke-width="2"/>
<path d="M9.1986 10.1808L9.94268 10.7389L11.0159 11.7405C11.0159 11.7405 12.053 11.847 12.6471 11.6117C13.1243 11.4228 13.3342 11.1913 13.7203 10.8533C14.5733 10.1067 14.791 9.44274 15.4088 8.49232C16.5901 6.67497 17.8414 3.87044 17.8414 3.87044C17.8414 3.87044 18.1002 3.1187 18.0274 2.82586C17.9335 2.44819 17.8101 2.21404 17.498 1.98161C17.2372 1.78741 17.0349 1.7382 16.7109 1.70974C16.2749 1.67142 15.4088 2.2821 15.4088 2.2821C15.4088 2.2821 9.44459 7.00417 9.0412 8.02011C8.63781 9.03605 8.74966 9.19346 8.75501 9.23638C8.81203 9.69431 9.1986 10.1808 9.1986 10.1808Z" stroke="#262626" stroke-width="2"/>
</svg>
