<svg width="20" height="20" viewBox="0 0 20 20" fill="none" xmlns="http://www.w3.org/2000/svg">
<path d="M12.7857 5.25C12.7857 7.0373 11.3228 8.5 9.5 8.5C7.67719 8.5 6.21429 7.0373 6.21429 5.25C6.21429 3.4627 7.67719 2 9.5 2C11.3228 2 12.7857 3.4627 12.7857 5.25ZM9.5 12.0938C10.4393 12.0938 11.335 11.9021 12.1491 11.5625H12.5C14.44 11.5625 16 13.1215 16 15.025V16.4062C16 16.726 15.7358 17 15.3929 17H3.60714C3.26424 17 3 16.726 3 16.4062V15.025C3 13.1215 4.56 11.5625 6.5 11.5625H6.85152C7.66673 11.9016 8.55952 12.0938 9.5 12.0938Z" stroke="#262626" stroke-width="2"/>
</svg>
