<svg width="21" height="20" viewBox="0 0 21 20" fill="none" xmlns="http://www.w3.org/2000/svg">
<rect width="21" height="20" fill="white"/>
<path d="M17.0729 17.0997L17.1242 17.2974L17.2794 17.4302C17.3175 17.4628 17.35 17.5221 17.35 17.5938V18.1562C17.35 18.2951 17.2532 18.35 17.1964 18.35H6.21429C4.82824 18.35 3.65 17.1595 3.65 15.625V4.375C3.65 2.84045 4.82824 1.65 6.21429 1.65H17.1964C17.2532 1.65 17.35 1.70491 17.35 1.84375V13.6562C17.35 13.7293 17.3167 13.785 17.2851 13.8115L17.1253 13.9451L17.0729 14.1467C16.9798 14.5051 16.9465 15.0998 16.9465 15.6232C16.9465 16.1467 16.9798 16.7414 17.0729 17.0997ZM15.7701 17.4H16.4925L16.4165 16.6816C16.3577 16.1259 16.3577 15.1241 16.4165 14.5684L16.4925 13.85H15.7701H6.21429C5.23649 13.85 4.49286 14.6775 4.49286 15.625C4.49286 16.576 5.23315 17.4 6.21429 17.4H15.7701Z" stroke="#262626" stroke-width="1.3"/>
<path d="M7.5 5.5H13.5" stroke="#262626" stroke-width="1.3" stroke-linecap="round"/>
<path d="M7.5 8H13.5" stroke="#262626" stroke-width="1.3" stroke-linecap="round"/>
</svg>
