<svg width="20" height="17" viewBox="0 0 20 17" fill="none" xmlns="http://www.w3.org/2000/svg">
<path d="M2.22222 2.01667H2.82222V1.41667V1.0625C2.82222 0.89281 2.87675 0.760103 2.93841 0.68148C2.99936 0.603771 3.04525 0.6 3.05556 0.6H19.1667C19.177 0.6 19.2229 0.603771 19.2838 0.68148C19.3455 0.760102 19.4 0.89281 19.4 1.0625V14.875C19.4 15.8612 18.7949 16.4 18.3333 16.4H1.94444C1.32952 16.4 0.6 15.7026 0.6 14.5208V2.47917C0.6 2.30948 0.654523 2.17677 0.716188 2.09815C0.777136 2.02044 0.823029 2.01667 0.833333 2.01667H2.22222ZM1.66667 2.94167H1.06667V3.54167V14.5208C1.06667 14.733 1.13159 14.9575 1.27591 15.1416C1.42299 15.3291 1.65808 15.475 1.94444 15.475C2.23081 15.475 2.4659 15.3291 2.61298 15.1416C2.7573 14.9575 2.82222 14.733 2.82222 14.5208V3.54167V2.94167H2.22222H1.66667ZM5.45455 14.7667H9.71247C10.001 14.7667 10.2778 14.6342 10.4714 14.4782C10.6663 14.3211 10.9046 14.0338 10.9046 13.6354V13.2812C10.9046 12.8828 10.6663 12.5956 10.4714 12.4385C10.2778 12.2824 10.001 12.15 9.71247 12.15H5.45455C5.16628 12.15 4.88936 12.2822 4.69562 12.438C4.50073 12.5946 4.26111 12.882 4.26111 13.2812V13.6354C4.26111 14.0347 4.50073 14.322 4.69562 14.4787C4.88936 14.6344 5.16628 14.7667 5.45455 14.7667ZM12.7273 14.7667H16.8182C17.1175 14.7667 17.3902 14.6252 17.577 14.4573C17.7699 14.2839 17.9611 14.0003 17.9611 13.6354V13.2812C17.9611 12.9164 17.7699 12.6327 17.577 12.4594C17.3902 12.2915 17.1175 12.15 16.8182 12.15H12.7273C12.4709 12.15 12.1707 12.2587 11.9503 12.3859C11.831 12.4547 11.6955 12.5511 11.5828 12.6806C11.4714 12.8086 11.3456 13.0131 11.3456 13.2812V13.6354C11.3456 13.9035 11.4714 14.1081 11.5828 14.236C11.6955 14.3656 11.831 14.4619 11.9503 14.5308C12.1707 14.6579 12.4709 14.7667 12.7273 14.7667ZM5.45455 10.5167H9.71247C10.001 10.5167 10.2778 10.3842 10.4714 10.2282C10.6663 10.0711 10.9046 9.78384 10.9046 9.38542V9.03125C10.9046 8.63282 10.6663 8.34558 10.4714 8.18847C10.2778 8.03245 10.001 7.9 9.71247 7.9H5.45455C5.16628 7.9 4.88936 8.03223 4.69562 8.18797C4.50073 8.34464 4.26111 8.63196 4.26111 9.03125V9.38542C4.26111 9.78471 4.50073 10.072 4.69562 10.2287C4.88936 10.3844 5.16628 10.5167 5.45455 10.5167ZM12.7273 10.5167H16.8182C17.1175 10.5167 17.3902 10.3752 17.577 10.2073C17.7699 10.0339 17.9611 9.75028 17.9611 9.38542V9.03125C17.9611 8.66639 17.7699 8.38274 17.577 8.20935C17.3902 8.04146 17.1175 7.9 16.8182 7.9H12.7273C12.4709 7.9 12.1707 8.00874 11.9503 8.13589C11.831 8.20474 11.6955 8.3011 11.5828 8.43062C11.4714 8.55859 11.3456 8.76313 11.3456 9.03125V9.38542C11.3456 9.65353 11.4714 9.85808 11.5828 9.98605C11.6955 10.1156 11.831 10.2119 11.9503 10.2808C12.1707 10.4079 12.4709 10.5167 12.7273 10.5167ZM4.4 5.19444C4.4 5.8427 4.91707 6.26667 5.45455 6.26667H11.1111H16.8182C17.3557 6.26667 17.8727 5.8427 17.8727 5.19444V3.30556C17.8727 2.71866 17.451 2.23333 16.8529 2.23333H5.45455C4.91707 2.23333 4.4 2.6573 4.4 3.30556V3.30729V3.30904V3.31082V3.31262V3.31444V3.31628V3.31815V3.32004V3.32195V3.32389V3.32584V3.32782V3.32982V3.33184V3.33389V3.33595V3.33804V3.34015V3.34228V3.34443V3.34661V3.3488V3.35102V3.35325V3.35551V3.35779V3.36009V3.36241V3.36475V3.36711V3.36949V3.37189V3.37432V3.37676V3.37922V3.3817V3.3842V3.38672V3.38927V3.39183V3.39441V3.39701V3.39962V3.40226V3.40492V3.4076V3.41029V3.413V3.41574V3.41849V3.42126V3.42405V3.42685V3.42968V3.43252V3.43538V3.43826V3.44116V3.44408V3.44701V3.44996V3.45293V3.45591V3.45892V3.46194V3.46498V3.46803V3.4711V3.47419V3.4773V3.48042V3.48356V3.48672V3.48989V3.49308V3.49628V3.4995V3.50274V3.506V3.50926V3.51255V3.51585V3.51917V3.5225V3.52585V3.52921V3.53259V3.53599V3.53939V3.54282V3.54626V3.54971V3.55318V3.55666V3.56016V3.56368V3.5672V3.57074V3.5743V3.57787V3.58145V3.58505V3.58866V3.59229V3.59593V3.59958V3.60325V3.60693V3.61062V3.61433V3.61805V3.62178V3.62552V3.62928V3.63306V3.63684V3.64064V3.64445V3.64827V3.6521V3.65595V3.65981V3.66368V3.66756V3.67145V3.67536V3.67928V3.68321V3.68715V3.6911V3.69507V3.69904V3.70303V3.70703V3.71103V3.71505V3.71908V3.72313V3.72718V3.73124V3.73531V3.7394V3.74349V3.74759V3.75171V3.75583V3.75996V3.76411V3.76826V3.77242V3.7766V3.78078V3.78497V3.78917V3.79338V3.7976V3.80183V3.80606V3.81031V3.81456V3.81883V3.8231V3.82738V3.83167V3.83596V3.84027V3.84458V3.8489V3.85323V3.85757V3.86191V3.86627V3.87063V3.87499V3.87937V3.88375V3.88814V3.89253V3.89694V3.90135V3.90577V3.91019V3.91462V3.91906V3.9235V3.92795V3.93241V3.93687V3.94134V3.94582V3.9503V3.95478V3.95928V3.96377V3.96828V3.97279V3.9773V3.98182V3.98635V3.99088V3.99541V3.99995V4.0045V4.00905V4.0136V4.01816V4.02273V4.02729V4.03187V4.03644V4.04102V4.04561V4.0502V4.05479V4.05939V4.06399V4.06859V4.0732V4.07781V4.08243V4.08704V4.09166V4.09629V4.10091V4.10554V4.11018V4.11481V4.11945V4.12409V4.12873V4.13338V4.13802V4.14267V4.14732V4.15198V4.15663V4.16129V4.16595V4.17061V4.17527V4.17994V4.1846V4.18927V4.19393V4.1986V4.20327V4.20794V4.21261V4.21728V4.22196V4.22663V4.2313V4.23598V4.24065V4.24533V4.25V4.25467V4.25935V4.26402V4.2687V4.27337V4.27804V4.28271V4.28739V4.29206V4.29673V4.3014V4.30607V4.31073V4.3154V4.32006V4.32473V4.32939V4.33405V4.33871V4.34337V4.34802V4.35267V4.35733V4.36198V4.36662V4.37127V4.37591V4.38055V4.38519V4.38982V4.39446V4.39909V4.40371V4.40834V4.41296V4.41757V4.42219V4.4268V4.43141V4.43601V4.44061V4.44521V4.4498V4.45439V4.45898V4.46356V4.46813V4.47271V4.47727V4.48184V4.4864V4.49095V4.4955V4.50005V4.50459V4.50912V4.51365V4.51818V4.5227V4.52721V4.53172V4.53623V4.54072V4.54522V4.5497V4.55418V4.55866V4.56313V4.56759V4.57205V4.5765V4.58094V4.58538V4.58981V4.59423V4.59865V4.60306V4.60746V4.61186V4.61625V4.62063V4.62501V4.62937V4.63373V4.63809V4.64243V4.64677V4.6511V4.65542V4.65973V4.66404V4.66833V4.67262V4.6769V4.68117V4.68544V4.68969V4.69394V4.69817V4.7024V4.70662V4.71083V4.71503V4.71922V4.7234V4.72758V4.73174V4.73589V4.74004V4.74417V4.74829V4.75241V4.75651V4.7606V4.76469V4.76876V4.77282V4.77687V4.78092V4.78495V4.78897V4.79297V4.79697V4.80096V4.80493V4.8089V4.81285V4.81679V4.82072V4.82464V4.82855V4.83244V4.83632V4.84019V4.84405V4.8479V4.85173V4.85555V4.85936V4.86316V4.86694V4.87072V4.87447V4.87822V4.88195V4.88567V4.88938V4.89307V4.89675V4.90042V4.90407V4.90771V4.91134V4.91495V4.91855V4.92213V4.9257V4.92926V4.9328V4.93632V4.93984V4.94334V4.94682V4.95029V4.95374V4.95718V4.96061V4.96401V4.96741V4.97079V4.97415V4.9775V4.98083V4.98415V4.98745V4.99074V4.994V4.99726V5.0005V5.00372V5.00692V5.01011V5.01328V5.01644V5.01958V5.0227V5.02581V5.0289V5.03197V5.03502V5.03806V5.04108V5.04408V5.04707V5.05004V5.05299V5.05592V5.05884V5.06174V5.06462V5.06748V5.07032V5.07315V5.07595V5.07874V5.08151V5.08426V5.087V5.08971V5.0924V5.09508V5.09774V5.10038V5.10299V5.10559V5.10817V5.11073V5.11328V5.1158V5.1183V5.12078V5.12324V5.12568V5.12811V5.13051V5.13289V5.13525V5.13759V5.13991V5.14221V5.14449V5.14675V5.14898V5.1512V5.15339V5.15557V5.15772V5.15985V5.16196V5.16405V5.16611V5.16816V5.17018V5.17218V5.17416V5.17611V5.17805V5.17996V5.18185V5.18372V5.18556V5.18738V5.18918V5.19096V5.19271V5.19444Z" stroke="#262626" stroke-width="1.2"/>
</svg>
