<svg width="20" height="20" viewBox="0 0 20 20" fill="none" xmlns="http://www.w3.org/2000/svg">
<path d="M13.75 4.25C13.6119 4.11193 13.6119 3.88807 13.75 3.75C13.8881 3.61193 14.1119 3.61193 14.25 3.75C14.3881 3.88807 14.3881 4.11193 14.25 4.25C14.1119 4.38807 13.8881 4.38807 13.75 4.25Z" fill="#262626" stroke="#262626" stroke-width="0.5"/>
<path d="M15.5 3.5C15.2239 3.77614 15.2239 4.22386 15.5 4.5C15.7761 4.77614 16.2239 4.77614 16.5 4.5C16.7761 4.22386 16.7761 3.77614 16.5 3.5C16.2239 3.22386 15.7761 3.22386 15.5 3.5Z" fill="#262626" stroke="#262626" stroke-width="0.5"/>
<path d="M10 10C8.61929 10 7.5 11.1193 7.5 12.5C7.5 13.8807 8.61929 15 10 15C11.3807 15 12.5 13.8807 12.5 12.5C12.5 11.1193 11.3807 10 10 10Z" stroke="#262626" stroke-width="1.3"/>
<path d="M6.59054 9.49688C4.84847 11.2836 4.78126 14.1122 6.43651 15.9797C8.33128 18.1173 11.6687 18.1173 13.5635 15.9797C15.2187 14.1122 15.1515 11.2836 13.4095 9.49688C11.5406 7.58009 8.45941 7.58009 6.59054 9.49688Z" stroke="#262626" stroke-width="1.3"/>
<path d="M17.0365 1H2.96353C2.6587 1 2.35806 1.07097 2.08541 1.20729C1.70541 1.39729 1.39729 1.70541 1.20729 2.08541C1.07097 2.35806 1 2.6587 1 2.96353V16.0365C1 16.3413 1.07097 16.6419 1.20729 16.9146C1.39729 17.2946 1.70541 17.6027 2.08541 17.7927C2.35806 17.929 2.6587 18 2.96353 18H17.0365C17.3413 18 17.6419 17.929 17.9146 17.7927C18.2946 17.6027 18.6027 17.2946 18.7927 16.9146C18.929 16.6419 19 16.3413 19 16.0365V2.96353C19 2.6587 18.929 2.35806 18.7927 2.08541C18.6027 1.70541 18.2946 1.39729 17.9146 1.20729C17.6419 1.07097 17.3413 1 17.0365 1Z" stroke="#262626" stroke-width="1.3"/>
<path d="M1.5 7H18.5" stroke="#262626" stroke-width="1.3"/>
<path d="M1.5 3.5H4.45049C5.93292 3.5 7.20927 2.45364 7.5 1V1" stroke="#262626" stroke-width="1.3"/>
</svg>
