<svg width="22" height="22" viewBox="0 0 22 22" fill="none" xmlns="http://www.w3.org/2000/svg">
<circle cx="10.6829" cy="10.6829" r="10.6829" fill="url(#paint0_linear)"/>
<path d="M10.5144 5C6.84427 5 4 7.47609 4 10.8205C4 12.5698 4.77869 14.0815 6.04619 15.1258C6.26504 15.3075 6.21996 15.4127 6.25718 16.5346C6.26011 16.6132 6.28382 16.6899 6.32625 16.7581C6.36868 16.8263 6.42854 16.8839 6.5006 16.9258C6.57267 16.9677 6.65475 16.9927 6.73969 16.9986C6.82463 17.0045 6.90984 16.9912 6.9879 16.9597C8.37466 16.396 8.39248 16.3515 8.62758 16.4105C12.6453 17.4313 17 15.0578 17 10.8205C17 7.47609 14.1848 5 10.5144 5ZM14.4259 9.47918L12.5126 12.2754C12.4404 12.3805 12.3454 12.4708 12.2336 12.5404C12.1218 12.6101 11.9956 12.6577 11.863 12.6803C11.7303 12.7028 11.5941 12.6998 11.4627 12.6715C11.3314 12.6432 11.2078 12.5901 11.0997 12.5156L9.57742 11.4639C9.50937 11.4168 9.4266 11.3913 9.34153 11.3913C9.25647 11.3913 9.1737 11.4168 9.10565 11.4639L7.05159 12.902C6.77744 13.0939 6.41837 12.7907 6.60315 12.5229L8.51645 9.72669C8.58868 9.62152 8.68366 9.53126 8.79545 9.46156C8.90724 9.39187 9.03343 9.34425 9.16609 9.3217C9.29876 9.29914 9.43504 9.30213 9.56639 9.33048C9.69775 9.35883 9.82134 9.41192 9.92942 9.48644L11.4511 10.5379C11.5192 10.5851 11.602 10.6105 11.687 10.6105C11.7721 10.6105 11.8549 10.5851 11.9229 10.5379L13.978 9.10126C14.2517 8.90818 14.6107 9.2111 14.4259 9.47918Z" fill="white"/>
<defs>
<linearGradient id="paint0_linear" x1="10.6829" y1="0" x2="10.6829" y2="21.3659" gradientUnits="userSpaceOnUse">
<stop stopColor="#9A86B5"/>
<stop offset="1" stopColor="#D3EEE6"/>
</linearGradient>
</defs>
</svg>
