<svg width="30" height="29" viewBox="0 0 30 29" fill="none" xmlns="http://www.w3.org/2000/svg">
<circle cx="14.4999" cy="14.4999" r="5.19231" stroke="black" strokeWidth="2"/>
<path d="M16.2092 1H13.7615C12.7356 1 11.9038 1.8433 11.9038 2.86927C11.9038 3.61721 11.4485 4.29753 10.754 4.57531L10.4304 4.70478C9.78334 4.96359 9.04412 4.71457 8.68559 4.117C8.21035 3.32495 7.1173 3.19039 6.46416 3.84353L4.48973 5.81797C3.73606 6.57163 3.80482 7.81308 4.6371 8.47891C5.25234 8.9711 5.47297 9.80796 5.18035 10.5395L5.13012 10.6651C4.83085 11.4133 4.10623 11.9038 3.30043 11.9038H3C1.89543 11.9038 1 12.7993 1 13.9038V15.6154C1 16.72 1.89543 17.6154 3 17.6154H3.50223C4.20476 17.6154 4.85577 17.984 5.21722 18.5864L5.44154 18.9603C5.87152 19.6769 5.70544 20.601 5.05284 21.1231C4.27576 21.7448 4.21157 22.9039 4.91524 23.6076L5.96499 24.6573C6.6856 25.3779 7.83281 25.4414 8.62859 24.8048L8.74101 24.7149C9.3938 24.1926 10.3025 24.1315 11.0194 24.5616L11.5918 24.9051C12.0903 25.2042 12.347 25.7844 12.2329 26.3545C12.0627 27.2058 12.7138 28 13.5819 28H15.7577C16.7837 28 17.6154 27.1683 17.6154 26.1423C17.6154 25.3827 18.0779 24.6996 18.7831 24.4175L19.0841 24.2971C19.7681 24.0235 20.5493 24.1839 21.0702 24.7048C21.7557 25.3904 22.8554 25.427 23.5851 24.7885L25.0021 23.5486C25.8076 22.8439 25.9154 21.6299 25.2468 20.7941L25.0451 20.5419C24.6213 20.0122 24.4949 19.3037 24.7095 18.6601L24.9689 17.8818C25.2091 17.1612 25.9881 16.7717 26.7088 17.0119C27.5994 17.3088 28.5192 16.6458 28.5192 15.707V13.5981C28.5192 12.6204 27.8124 11.786 26.848 11.6253L26.3521 11.5427C25.7563 11.4434 25.244 11.065 24.9739 10.5247L24.9156 10.4081C24.587 9.75094 24.7158 8.95727 25.2353 8.43775C25.9019 7.77115 25.9019 6.69038 25.2353 6.02379L23.4954 4.2839C22.8288 3.61731 21.7481 3.61731 21.0815 4.2839C20.562 4.80342 19.7588 4.92748 19.1017 4.59891C18.5141 4.3051 18.1346 3.7004 18.1346 3.04344V2.92541C18.1346 1.86204 17.2726 1 16.2092 1Z" stroke="black" strokeWidth="2" strokeLinecap="round"/>
</svg>
