<svg width="22" height="22" viewBox="0 0 22 22" fill="none" xmlns="http://www.w3.org/2000/svg">
<circle cx="11.317" cy="10.6829" r="10.6829" fill="url(#paint0_linear)"/>
<g clip-path="url(#clip0)">
<path d="M16.8135 8.27852C16.8219 8.39531 16.8219 8.51213 16.8219 8.62893C16.8219 12.1913 14.1105 16.2959 9.15486 16.2959C7.62813 16.2959 6.20987 15.8537 5.01685 15.0862C5.23377 15.1113 5.44231 15.1196 5.66758 15.1196C6.92732 15.1196 8.08698 14.6941 9.01303 13.9683C7.82836 13.9433 6.83556 13.1674 6.4935 12.0995C6.66037 12.1245 6.82722 12.1412 7.00243 12.1412C7.24436 12.1412 7.48632 12.1078 7.71156 12.0495C6.47684 11.7992 5.55076 10.7146 5.55076 9.4048V9.37144C5.90949 9.57167 6.32666 9.69681 6.76879 9.71347C6.04297 9.22958 5.56745 8.40366 5.56745 7.46926C5.56745 6.96871 5.70091 6.50985 5.93452 6.1094C7.26103 7.74458 9.25496 8.81244 11.4908 8.92925C11.4491 8.72903 11.4241 8.52048 11.4241 8.3119C11.4241 6.82687 12.6254 5.61719 14.1188 5.61719C14.8946 5.61719 15.5954 5.94255 16.0877 6.46815C16.6967 6.35136 17.2807 6.12609 17.7979 5.81742C17.5977 6.44314 17.1722 6.96873 16.6133 7.30242C17.1556 7.24405 17.6811 7.09385 18.165 6.8853C17.798 7.41921 17.3391 7.89473 16.8135 8.27852Z" fill="white"/>
</g>
<defs>
<linearGradient id="paint0_linear" x1="11.317" y1="0" x2="11.317" y2="21.3659" gradientUnits="userSpaceOnUse">
<stop stopColor="#9A86B5"/>
<stop offset="1" stopColor="#D3EEE6"/>
</linearGradient>
<clipPath id="clip0">
<rect width="13.1482" height="13.1482" fill="white" transform="translate(5.01685 4.38232)"/>
</clipPath>
</defs>
</svg>
