<svg width="9" height="12" viewBox="0 0 9 12" fill="none" xmlns="http://www.w3.org/2000/svg">
<path d="M5.25694 10.1232L7.82406 7.14974C7.89301 7.06988 7.83627 6.94595 7.73077 6.94595L7.38462 6.94595C6.83233 6.94595 6.38462 6.49823 6.38462 5.94595L6.38462 2C6.38462 1.44772 5.9369 1 5.38462 1L3.61538 1C3.0631 1 2.61538 1.44772 2.61538 2L2.61538 5.94595C2.61538 6.49823 2.16767 6.94595 1.61538 6.94595L1.26923 6.94595C1.16373 6.94595 1.10699 7.06988 1.17594 7.14974L3.74306 10.1232C4.14194 10.5853 4.85806 10.5853 5.25694 10.1232Z" stroke="#E0E0E0" stroke-width="1.5"/>
</svg>
