<svg width="17" height="17" viewBox="0 0 17 17" fill="none" xmlns="http://www.w3.org/2000/svg">
<circle cx="8.5" cy="8.5" r="8.5" fill="#C8D9DC"/>
<path d="M5.5 11.3125C5.5 11.8428 5.89356 12.375 6.5 12.375H10.9594H11.5V12.5H6.5C6.00175 12.5 5.5 12.025 5.5 11.3125ZM5.5 11.3125C5.5 10.784 5.89512 10.25 6.5 10.25H10.9594H11.5V4.5H6.5C6.00175 4.5 5.5 4.97501 5.5 5.6875V11.3125ZM7.09375 5.75C6.71231 5.75 6.5 6.07831 6.5 6.35547V6.70703C6.5 6.83784 6.54729 6.98005 6.63734 7.09375C6.54729 7.20745 6.5 7.34966 6.5 7.48047V7.83203C6.5 8.10919 6.71231 8.4375 7.09375 8.4375H10.4062C10.7877 8.4375 11 8.10919 11 7.83203V7.48047C11 7.34966 10.9527 7.20745 10.8627 7.09375C10.9527 6.98005 11 6.83784 11 6.70703V6.35547C11 6.07831 10.7877 5.75 10.4062 5.75H7.09375Z" stroke="white"/>
</svg>
