<svg width="17" height="17" viewBox="0 0 17 17" fill="none" xmlns="http://www.w3.org/2000/svg">
<circle cx="8.5" cy="8.5" r="8.5" fill="#B0AEC8"/>
<path d="M12.5 7.76221V12.1429C12.5 12.3474 12.3385 12.5 12.1562 12.5H8.50159C9.94806 12.4991 11.1094 11.3074 11.1094 9.85714C11.1094 9.02127 10.7236 8.27131 10.1198 7.78571H12.332C12.3906 7.78571 12.4469 7.77749 12.5 7.76221ZM4.66797 7.78571H6.88015C6.27638 8.27131 5.89062 9.02127 5.89062 9.85714C5.89062 11.3074 7.05194 12.4991 8.49841 12.5H4.84375C4.66147 12.5 4.5 12.3474 4.5 12.1429V7.76221C4.55308 7.77749 4.60938 7.78571 4.66797 7.78571ZM8.5 10.9286C8.22359 10.9286 7.96868 10.8167 7.77961 10.6332C8.15718 10.5732 8.4375 10.2421 8.4375 9.85714C8.4375 9.83648 8.44544 9.81817 8.45906 9.80433C8.47257 9.7906 8.48699 9.78571 8.5 9.78571C8.89185 9.78571 9.20758 9.49797 9.27002 9.13262C9.44118 9.32253 9.54688 9.5762 9.54688 9.85714C9.54688 10.4545 9.069 10.9286 8.5 10.9286Z" stroke="white"/>
</svg>
