<svg width="17" height="17" viewBox="0 0 17 17" fill="none" xmlns="http://www.w3.org/2000/svg">
<circle cx="8.5" cy="8.5" r="8.5" fill="#BEC7D3"/>
<path d="M9.52083 7.3125H11.5V12.5H5.5V4.5H8.58333V6.39062C8.58333 6.91578 9.02136 7.3125 9.52083 7.3125ZM10.1667 4.89415L11.0533 5.75H10.1667V4.89415ZM10.0312 11.25C10.4104 11.25 10.75 10.9482 10.75 10.5391V10.3984C10.75 10.2027 10.6723 10.0316 10.5497 9.90625C10.6723 9.78094 10.75 9.60979 10.75 9.41406V9.27344C10.75 9.07771 10.6723 8.90656 10.5497 8.78125C10.6723 8.65594 10.75 8.48479 10.75 8.28906V8.14844C10.75 7.7393 10.4104 7.4375 10.0312 7.4375H6.96875C6.58959 7.4375 6.25 7.7393 6.25 8.14844V8.28906C6.25 8.48479 6.32771 8.65594 6.4503 8.78125C6.32771 8.90656 6.25 9.07771 6.25 9.27344V9.41406C6.25 9.60979 6.32771 9.78094 6.4503 9.90625C6.32771 10.0316 6.25 10.2027 6.25 10.3984V10.5391C6.25 10.9482 6.58959 11.25 6.96875 11.25H10.0312Z" stroke="white"/>
</svg>
