<svg width="17" height="17" viewBox="0 0 17 17" fill="none" xmlns="http://www.w3.org/2000/svg">
<circle cx="8.5" cy="8.5" r="8.5" fill="#A396BC"/>
<path d="M5.5 6.08333V5.95833V5.58333V5.5H12.5V6.38542C12.5 6.06356 12.2617 5.66667 11.8125 5.66667H6.1875C5.73828 5.66667 5.5 6.06356 5.5 6.38542V6.08333ZM12.25 11.5H5.2449C5.28123 11.4725 5.31412 11.4414 5.34302 11.4077C5.45011 11.2827 5.5 11.1277 5.5 10.9792V10.6146C5.5 10.9364 5.73828 11.3333 6.1875 11.3333H8.5625C8.74297 11.3333 8.88939 11.2693 9 11.1718C9.11061 11.2693 9.25703 11.3333 9.4375 11.3333H11.8125C12.2617 11.3333 12.5 10.9364 12.5 10.6146V11.125C12.5 11.2519 12.4558 11.3541 12.4007 11.4183C12.3465 11.4815 12.2917 11.5 12.25 11.5ZM12.5 7.11458V8.71875C12.5 8.39689 12.2617 8 11.8125 8H9.4375C9.25703 8 9.11061 8.06406 9 8.16157C8.88939 8.06406 8.74297 8 8.5625 8H6.1875C5.73828 8 5.5 8.39689 5.5 8.71875V7.11458C5.5 7.43644 5.73828 7.83333 6.1875 7.83333H11.8125C12.2617 7.83333 12.5 7.43644 12.5 7.11458ZM12.5 8.86458V10.4688C12.5 10.1469 12.2617 9.75 11.8125 9.75H9.4375C9.25703 9.75 9.11061 9.81406 9 9.91157C8.88939 9.81406 8.74297 9.75 8.5625 9.75H6.1875C5.73828 9.75 5.5 10.1469 5.5 10.4688V8.86458C5.5 9.18644 5.73828 9.58333 6.1875 9.58333H8.5625C8.74297 9.58333 8.88939 9.51928 9 9.42177C9.11061 9.51928 9.25703 9.58333 9.4375 9.58333H11.8125C12.2617 9.58333 12.5 9.18644 12.5 8.86458Z" stroke="white"/>
</svg>
