<svg width="23" height="23" viewBox="0 0 23 23" fill="none" xmlns="http://www.w3.org/2000/svg">
<path d="M11.5 0.359375C17.6543 0.359375 22.6406 5.3457 22.6406 11.5C22.6406 17.6543 17.6543 22.6406 11.5 22.6406C5.3457 22.6406 0.359375 17.6543 0.359375 11.5C0.359375 5.3457 5.3457 0.359375 11.5 0.359375ZM11.5 20.4844C16.4639 20.4844 20.4844 16.4639 20.4844 11.5C20.4844 6.53613 16.4639 2.51562 11.5 2.51562C6.53613 2.51562 2.51562 6.53613 2.51562 11.5C2.51562 16.4639 6.53613 20.4844 11.5 20.4844ZM6.92695 8.70586L9.72109 11.5L6.92695 14.2941C6.71582 14.5053 6.71582 14.8467 6.92695 15.0578L7.94219 16.073C8.15332 16.2842 8.49473 16.2842 8.70586 16.073L11.5 13.2789L14.2941 16.073C14.5053 16.2842 14.8467 16.2842 15.0578 16.073L16.073 15.0578C16.2842 14.8467 16.2842 14.5053 16.073 14.2941L13.2789 11.5L16.073 8.70586C16.2842 8.49473 16.2842 8.15332 16.073 7.94219L15.0578 6.92695C14.8467 6.71582 14.5053 6.71582 14.2941 6.92695L11.5 9.72109L8.70586 6.92695C8.49473 6.71582 8.15332 6.71582 7.94219 6.92695L6.92695 7.94219C6.71582 8.15332 6.71582 8.49473 6.92695 8.70586V8.70586Z" fill="#262626"/>
</svg>
