<svg width="14" height="14" viewBox="0 0 14 14" fill="none" xmlns="http://www.w3.org/2000/svg">
<path d="M9.5 4C9.5 4.66089 9.13972 5.41664 8.5448 6.02047C7.95089 6.62329 7.19678 7 6.5 7C5.80322 7 5.04911 6.62329 4.4552 6.02047C3.86028 5.41664 3.5 4.66089 3.5 4C3.5 3.33911 3.86028 2.58336 4.4552 1.97953C5.04911 1.37671 5.80322 1 6.5 1C7.19678 1 7.95089 1.37671 8.5448 1.97953C9.13972 2.58336 9.5 3.33911 9.5 4ZM6.5 8.625C7.17146 8.625 7.81148 8.48969 8.39188 8.25H8.7C10.2679 8.25 11.5 9.45875 11.5 10.9V11.875C11.5 12.1095 11.4301 12.4371 11.2992 12.6921C11.1572 12.9686 11.0368 13 11 13H2C1.96322 13 1.84276 12.9686 1.70083 12.6921C1.56993 12.4371 1.5 12.1095 1.5 11.875V10.9C1.5 9.45875 2.73209 8.25 4.3 8.25H4.60847C5.19012 8.48944 5.82791 8.625 6.5 8.625Z" stroke="#D8D8D8"/>
</svg>
