<svg width="28" height="28" viewBox="0 0 28 28" fill="none" xmlns="http://www.w3.org/2000/svg">
<path d="M3.84513 20.5292L3.94696 20.1187L3.64826 19.8191C1.8204 17.9861 0.75 15.6869 0.75 13.201C0.75 7.46971 6.52834 2.57605 14 2.57605C21.4717 2.57605 27.25 7.46971 27.25 13.201C27.25 18.9324 21.4717 23.826 14 23.826C11.9927 23.826 10.0968 23.4549 8.39061 22.8131L7.99216 22.6633L7.6592 22.9285C6.46742 23.8781 4.17546 25.3501 1.13986 25.5526C1.37556 25.2638 1.67505 24.8762 1.99096 24.4161C2.67414 23.421 3.47233 22.0324 3.84513 20.5292ZM0.662221 26.1061C0.66441 26.1038 0.666838 26.1012 0.669499 26.0984C0.667149 26.101 0.664748 26.1036 0.662294 26.1062L0.662221 26.1061Z" stroke="#E1E1E1" stroke-width="1.5"/>
<ellipse cx="14.6087" cy="13.3913" rx="2.43478" ry="2.43478" stroke="#E1E1E1" stroke-width="1.5"/>
<circle cx="21.9131" cy="13.3913" r="2.43478" stroke="#E1E1E1" stroke-width="1.5"/>
<ellipse cx="7.30429" cy="13.3913" rx="2.43478" ry="2.43478" stroke="#E1E1E1" stroke-width="1.5"/>
</svg>
