<svg width="23" height="23" viewBox="0 0 23 23" fill="none" xmlns="http://www.w3.org/2000/svg">
<path d="M11.5 1.4375C5.14805 1.4375 0 5.61973 0 10.7812C0 13.0094 0.961328 15.0488 2.56055 16.6525C1.99902 18.9166 0.121289 20.9336 0.0988281 20.9561C0 21.0594 -0.0269531 21.2121 0.0314453 21.3469C0.0898438 21.4816 0.215625 21.5625 0.359375 21.5625C3.3377 21.5625 5.57031 20.134 6.67539 19.2535C8.14434 19.8061 9.775 20.125 11.5 20.125C17.852 20.125 23 15.9428 23 10.7812C23 5.61973 17.852 1.4375 11.5 1.4375ZM5.75 12.2188C4.95488 12.2188 4.3125 11.5764 4.3125 10.7812C4.3125 9.98613 4.95488 9.34375 5.75 9.34375C6.54512 9.34375 7.1875 9.98613 7.1875 10.7812C7.1875 11.5764 6.54512 12.2188 5.75 12.2188ZM11.5 12.2188C10.7049 12.2188 10.0625 11.5764 10.0625 10.7812C10.0625 9.98613 10.7049 9.34375 11.5 9.34375C12.2951 9.34375 12.9375 9.98613 12.9375 10.7812C12.9375 11.5764 12.2951 12.2188 11.5 12.2188ZM17.25 12.2188C16.4549 12.2188 15.8125 11.5764 15.8125 10.7812C15.8125 9.98613 16.4549 9.34375 17.25 9.34375C18.0451 9.34375 18.6875 9.98613 18.6875 10.7812C18.6875 11.5764 18.0451 12.2188 17.25 12.2188Z" fill="#EBEBEB"/>
<path d="M11.5 1.4375C5.14805 1.4375 0 5.61973 0 10.7812C0 13.0094 0.961328 15.0488 2.56055 16.6525C1.99902 18.9166 0.121289 20.9336 0.0988281 20.9561C0 21.0594 -0.0269531 21.2121 0.0314453 21.3469C0.0898438 21.4816 0.215625 21.5625 0.359375 21.5625C3.3377 21.5625 5.57031 20.134 6.67539 19.2535C8.14434 19.8061 9.775 20.125 11.5 20.125C17.852 20.125 23 15.9428 23 10.7812C23 5.61973 17.852 1.4375 11.5 1.4375ZM5.75 12.2188C4.95488 12.2188 4.3125 11.5764 4.3125 10.7812C4.3125 9.98613 4.95488 9.34375 5.75 9.34375C6.54512 9.34375 7.1875 9.98613 7.1875 10.7812C7.1875 11.5764 6.54512 12.2188 5.75 12.2188ZM11.5 12.2188C10.7049 12.2188 10.0625 11.5764 10.0625 10.7812C10.0625 9.98613 10.7049 9.34375 11.5 9.34375C12.2951 9.34375 12.9375 9.98613 12.9375 10.7812C12.9375 11.5764 12.2951 12.2188 11.5 12.2188ZM17.25 12.2188C16.4549 12.2188 15.8125 11.5764 15.8125 10.7812C15.8125 9.98613 16.4549 9.34375 17.25 9.34375C18.0451 9.34375 18.6875 9.98613 18.6875 10.7812C18.6875 11.5764 18.0451 12.2188 17.25 12.2188Z" fill="url(#paint0_linear_16:450)"/>
<defs>
<linearGradient id="paint0_linear_16:450" x1="20" y1="5.5" x2="-4.56422e-07" y2="20.5" gradientUnits="userSpaceOnUse">
<stop stop-color="#D3EEE6"/>
<stop offset="1" stop-color="#9A86B5"/>
</linearGradient>
</defs>
</svg>
