<svg width="22" height="26" viewBox="0 0 22 26" fill="none" xmlns="http://www.w3.org/2000/svg">
<path d="M14.5648 14.4073L14.4495 14.8171L14.7422 15.1262C16.3593 16.8339 17.1269 18.9632 16.3865 20.8309C16.3082 21.0285 16.0846 21.1251 15.8871 21.0468L9.90958 18.6771L9.21237 18.4007L8.93597 19.0979L7.15608 23.5876L5.88442 24.725L5.7375 23.0253L7.5174 18.5355L7.7938 17.8383L7.09658 17.5619L1.11906 15.1922C0.92153 15.1139 0.824888 14.8903 0.903196 14.6928C1.63687 12.8421 3.63847 11.8015 6.00969 11.6643L6.43467 11.6397L6.63144 11.2622L9.22991 6.27729L9.61431 5.53987L8.84125 5.2334L6.98615 4.49798C6.78862 4.41967 6.69198 4.19608 6.77028 3.99855L7.60665 1.88883C7.68496 1.6913 7.90855 1.59466 8.10608 1.67297L20.0611 6.41237C20.2587 6.49068 20.3553 6.71427 20.277 6.9118L19.4406 9.02151C19.3623 9.21904 19.1387 9.31568 18.9412 9.23738L17.0861 8.50195L16.313 8.19548L16.0877 8.99598L14.5648 14.4073ZM5.72993 22.9376C5.72996 22.9379 5.72998 22.9382 5.73001 22.9386L5.72995 22.9379L5.72993 22.9376Z" stroke="#E1E1E1" stroke-width="1.5"/>
</svg>
