<svg width="22" height="22" viewBox="0 0 22 22" fill="none" xmlns="http://www.w3.org/2000/svg">
<circle cx="10.6829" cy="10.6829" r="10.0829" stroke="url(#paint0_linear_625_14)" stroke-width="1.2"/>
<path d="M11.0135 4.93335C7.58801 4.93335 4.93335 7.24437 4.93335 10.3659C4.93335 11.9985 5.66013 13.4094 6.84313 14.3841C7.04739 14.5536 7.00531 14.6519 7.04005 15.699C7.04278 15.7723 7.06492 15.844 7.10452 15.9076C7.14412 15.9712 7.19999 16.025 7.26725 16.0641C7.33451 16.1032 7.41111 16.1266 7.49039 16.1321C7.56967 16.1376 7.6492 16.1251 7.72206 16.0958C9.01636 15.5696 9.033 15.5281 9.25242 15.5832C13.0023 16.5359 17.0667 14.3206 17.0667 10.3659C17.0667 7.24437 14.4392 4.93335 11.0135 4.93335ZM14.6642 9.11392L12.8785 11.7237C12.811 11.8218 12.7224 11.9061 12.618 11.9711C12.5137 12.0361 12.3959 12.0805 12.2721 12.1016C12.1483 12.1226 12.0211 12.1199 11.8985 12.0934C11.776 12.067 11.6606 12.0174 11.5597 11.9479L10.1389 10.9663C10.0754 10.9223 9.99817 10.8986 9.91878 10.8986C9.83939 10.8986 9.76213 10.9223 9.69862 10.9663L7.7815 12.3086C7.52563 12.4876 7.19049 12.2047 7.36295 11.9547L9.1487 9.34493C9.21611 9.24677 9.30477 9.16252 9.40911 9.09748C9.51344 9.03243 9.63122 8.98799 9.75504 8.96693C9.87886 8.94588 10.0061 8.94867 10.1286 8.97513C10.2512 9.00159 10.3666 9.05114 10.4675 9.12069L11.8878 10.1021C11.9513 10.1461 12.0285 10.1698 12.1079 10.1698C12.1873 10.1698 12.2646 10.1461 12.3281 10.1021L14.2462 8.76119C14.5016 8.58099 14.8367 8.86371 14.6642 9.11392Z" fill="url(#paint1_linear_625_14)"/>
<defs>
<linearGradient id="paint0_linear_625_14" x1="10.6829" y1="0" x2="10.6829" y2="21.3659" gradientUnits="userSpaceOnUse">
<stop stop-color="#9A86B5"/>
<stop offset="1" stop-color="#D3EEE6"/>
</linearGradient>
<linearGradient id="paint1_linear_625_14" x1="11" y1="4.93335" x2="11" y2="16.1333" gradientUnits="userSpaceOnUse">
<stop stop-color="#9A86B5"/>
<stop offset="1" stop-color="#D3EEE6"/>
</linearGradient>
</defs>
</svg>
