<svg width="21" height="21" viewBox="0 0 21 21" fill="none" xmlns="http://www.w3.org/2000/svg">
<circle cx="10.5" cy="10.5" r="10.5" fill="url(#paint0_linear_141_12)"/>
<path d="M15.6637 8.49218C15.672 8.60155 15.672 8.71094 15.672 8.82031C15.672 12.1562 12.9912 16 8.09139 16C6.58186 16 5.17958 15.5859 4 14.8672C4.21448 14.8906 4.42067 14.8984 4.6434 14.8984C5.88894 14.8984 7.03554 14.5 7.95115 13.8203C6.77983 13.7969 5.79822 13.0703 5.46002 12.0703C5.62501 12.0937 5.78997 12.1094 5.96321 12.1094C6.20242 12.1094 6.44165 12.0781 6.66435 12.0234C5.44354 11.789 4.5279 10.7734 4.5279 9.54687V9.51563C4.88258 9.70313 5.29505 9.82032 5.73221 9.83593C5.01456 9.38279 4.5444 8.60936 4.5444 7.73436C4.5444 7.26562 4.67636 6.83593 4.90734 6.46093C6.2189 7.99217 8.19036 8.99216 10.401 9.10155C10.3598 8.91405 10.335 8.71876 10.335 8.52344C10.335 7.1328 11.5228 6 12.9994 6C13.7665 6 14.4594 6.30469 14.9461 6.79687C15.5482 6.6875 16.1256 6.47656 16.6371 6.1875C16.4391 6.77345 16.0184 7.26564 15.4657 7.57812C16.0019 7.52346 16.5216 7.3828 17 7.18751C16.6371 7.68749 16.1834 8.13278 15.6637 8.49218V8.49218Z" fill="white"/>
<defs>
<linearGradient id="paint0_linear_141_12" x1="10.5" y1="0" x2="10.5" y2="21" gradientUnits="userSpaceOnUse">
<stop stop-color="#9A86B5"/>
<stop offset="1" stop-color="#D3EEE6"/>
</linearGradient>
</defs>
</svg>
