<svg width="22" height="22" viewBox="0 0 22 22" fill="none" xmlns="http://www.w3.org/2000/svg">
<path d="M16.2068 8.52827C16.2148 8.63922 16.2148 8.7502 16.2148 8.86115C16.2148 12.2454 13.639 16.1448 8.93112 16.1448C7.48072 16.1448 6.13337 15.7247 5 14.9956C5.20607 15.0194 5.40419 15.0273 5.6182 15.0273C6.81495 15.0273 7.91663 14.6231 8.79638 13.9336C7.67093 13.9098 6.72778 13.1727 6.40282 12.1582C6.56135 12.182 6.71985 12.1978 6.88631 12.1978C7.11614 12.1978 7.346 12.1661 7.55998 12.1107C6.38699 11.8729 5.50722 10.8426 5.50722 9.59823V9.56654C5.84801 9.75676 6.24432 9.87564 6.66435 9.89147C5.97482 9.43178 5.52308 8.64715 5.52308 7.75947C5.52308 7.28394 5.64986 6.84803 5.87179 6.4676C7.13198 8.02102 9.02621 9.03549 11.1503 9.14646C11.1106 8.95625 11.0869 8.75813 11.0869 8.55998C11.0869 7.1492 12.2282 6 13.6468 6C14.3839 6 15.0497 6.3091 15.5173 6.80841C16.0958 6.69746 16.6506 6.48346 17.142 6.19022C16.9518 6.78465 16.5476 7.28397 16.0166 7.60097C16.5318 7.54552 17.0311 7.40282 17.4908 7.2047C17.1421 7.71192 16.7062 8.16367 16.2068 8.52827V8.52827Z" fill="url(#paint0_linear_625_27)"/>
<circle cx="10.6829" cy="10.6829" r="10.0829" stroke="url(#paint1_linear_625_27)" stroke-width="1.2"/>
<defs>
<linearGradient id="paint0_linear_625_27" x1="11.2454" y1="6" x2="11.2454" y2="16.1448" gradientUnits="userSpaceOnUse">
<stop stop-color="#9A86B5"/>
<stop offset="1" stop-color="#D3EEE6"/>
</linearGradient>
<linearGradient id="paint1_linear_625_27" x1="10.6829" y1="0" x2="10.6829" y2="21.3659" gradientUnits="userSpaceOnUse">
<stop stop-color="#9A86B5"/>
<stop offset="1" stop-color="#D3EEE6"/>
</linearGradient>
</defs>
</svg>
